<?xml version="1.0" encoding="utf-8"?>
<!-- Uploaded to: SVG Repo, www.svgrepo.com, Generator: SVG Repo Mixer Tools -->
<svg fill="#000000" width="800px" height="800px" viewBox="-6.5 0 32 32" version="1.1" xmlns="http://www.w3.org/2000/svg">
<title>user</title>
<path d="M18.88 21.76c-0.12-0.6-0.32-1.2-0.56-1.76-0.88-2.080-2.48-3.8-4.44-4.8 0.56-0.84 0.88-1.84 0.88-2.92 0-2.92-2.36-5.28-5.28-5.28s-5.28 2.36-5.28 5.28c0 1.080 0.32 2.080 0.88 2.92-2.6 1.32-4.44 3.72-5.040 6.52-0.16 0.8 0.040 1.6 0.52 2.24 0.52 0.64 1.28 1 2.080 1h13.64c0.8 0 1.56-0.36 2.080-1 0.52-0.6 0.72-1.4 0.52-2.2zM9.44 8.68c2 0 3.6 1.64 3.6 3.6s-1.64 3.6-3.6 3.6c-2 0-3.6-1.64-3.6-3.6s1.64-3.6 3.6-3.6zM17.040 22.96c-0.2 0.24-0.48 0.36-0.76 0.36h-13.64c-0.32 0-0.6-0.12-0.76-0.36-0.2-0.24-0.28-0.56-0.2-0.84 0.52-2.44 2.2-4.52 4.48-5.6 0.040 0 0.040-0.040 0.080-0.040 0.88 0.68 2 1.12 3.2 1.12s2.32-0.4 3.24-1.12c0.040 0 0.040 0.040 0.080 0.040 1.8 0.84 3.24 2.28 4 4.12 0.2 0.48 0.36 0.96 0.48 1.48 0.080 0.24 0 0.6-0.2 0.84z"></path>
</svg>